<?xml version="1.0" standalone="no"?>
<!DOCTYPE svg PUBLIC "-//W3C//DTD SVG 20010904//EN"
 "http://www.w3.org/TR/2001/REC-SVG-20010904/DTD/svg10.dtd">
<svg version="1.0" xmlns="http://www.w3.org/2000/svg"
 width="800.000000pt" height="800.000000pt" viewBox="0 0 800.000000 800.000000"
 preserveAspectRatio="xMidYMid meet">
<metadata>
Created by potrace 1.11, written by Peter Selinger 2001-2013
</metadata>
<g transform="translate(0.000000,800.000000) scale(0.100000,-0.100000)"
fill="#000000" stroke="none">
<path d="M1988 6375 l5 -1625 -497 0 -496 0 0 -375 0 -375 495 0 495 0 -2
-1317 c-2 -982 -6 -1323 -15 -1338 -6 -11 -17 -35 -24 -54 -32 -86 -174 -230
-271 -274 -21 -9 -53 -23 -70 -31 -131 -58 -382 -58 -513 -1 -16 7 -48 20 -70
30 -80 34 -182 122 -237 204 -15 23 -35 41 -43 41 -27 0 -66 -44 -113 -129
-26 -46 -58 -103 -72 -126 -14 -23 -47 -82 -75 -130 -27 -49 -62 -109 -77
-134 -15 -25 -27 -56 -27 -67 -1 -29 132 -155 234 -222 149 -99 324 -170 522
-214 82 -18 131 -22 308 -22 237 -1 338 14 528 81 392 136 687 428 776 768 21
78 21 94 21 1507 l0 1428 490 0 490 0 0 375 0 375 -490 0 -490 0 0 1625 0
1625 -394 0 -393 0 5 -1625z"/>
<path d="M5238 6375 l3 -1625 -495 0 -496 0 0 -375 0 -375 495 0 495 0 -2
-1317 c-2 -982 -6 -1323 -15 -1338 -6 -11 -17 -35 -24 -54 -32 -86 -174 -230
-271 -274 -21 -9 -53 -23 -70 -31 -131 -58 -382 -58 -513 -1 -16 7 -48 20 -70
30 -80 34 -182 122 -237 204 -15 23 -35 41 -43 41 -27 0 -66 -44 -113 -129
-26 -46 -58 -103 -72 -126 -14 -23 -47 -82 -75 -130 -27 -49 -62 -109 -77
-134 -15 -25 -27 -56 -27 -67 -1 -29 132 -155 234 -222 149 -99 324 -170 522
-214 82 -18 131 -22 308 -22 237 -1 338 14 528 81 392 136 687 428 776 768 21
78 21 94 21 1507 l0 1428 490 0 490 0 0 375 0 375 -490 0 -490 0 0 1625 0
1625 -392 0 -393 0 3 -1625z"/>
</g>
</svg>
